<svg version="1.1" id="Layer_1" xmlns="http://www.w3.org/2000/svg" xmlns:xlink="http://www.w3.org/1999/xlink" x="0px" y="0px"
	 width="100%" viewBox="0 0 2000 1500" enable-background="new 0 0 2000 1500" xml:space="preserve">
<path fill="#FFFFFF" opacity="1.000000" stroke="none" 
	d="
M1438.000000,1501.000000 
	C960.166809,1501.000000 482.833618,1500.994873 5.500446,1501.092896 
	C1.752531,1501.093628 0.906331,1500.250610 0.907070,1496.500488 
	C1.004924,999.500610 1.004927,502.500732 0.907310,5.500892 
	C0.906574,1.753994 1.747956,0.906574 5.499136,0.907120 
	C669.165588,1.003712 1332.832031,1.003689 1996.498535,0.907545 
	C2000.243896,0.907003 2001.093872,1.745857 2001.093140,5.498546 
	C2000.995117,502.498352 2000.994995,999.498230 2001.092529,1496.498047 
	C2001.093262,1500.242310 2000.256104,1501.096191 1996.501953,1501.093994 
	C1810.501343,1500.986694 1624.500610,1501.000000 1438.000000,1501.000000 
z"/>
<path fill="#EE403A" opacity="1.000000" stroke="none" 
	d="
M378.999817,1174.408447 
	C353.001770,1174.408325 327.502472,1174.277100 302.006866,1174.524292 
	C297.142822,1174.571411 295.638245,1173.622192 295.649078,1168.367798 
	C295.839172,1076.208618 295.786438,984.049011 295.786438,891.889526 
	C295.786438,705.570679 295.782867,519.251770 295.800262,332.932922 
	C295.800934,325.796722 294.790283,326.604645 302.204712,326.604248 
	C580.516418,326.588959 858.828186,326.589722 1137.139893,326.599854 
	C1144.454102,326.600128 1143.540405,325.875671 1143.543335,332.986389 
	C1143.566284,390.815247 1143.494385,448.644257 1143.671875,506.472565 
	C1143.686401,511.177979 1142.329834,512.284485 1137.868286,512.126587 
	C1128.380981,511.790924 1118.867065,511.821228 1109.377197,512.120789 
	C1105.411743,512.246033 1104.418091,511.067810 1104.429810,507.164459 
	C1104.565186,462.168396 1104.516724,417.171722 1104.515381,372.175232 
	C1104.515259,365.625153 1104.511108,365.618744 1098.205078,365.618713 
	C845.724670,365.617615 593.244263,365.637360 340.763947,365.483643 
	C335.475098,365.480438 334.618103,367.061340 334.620300,371.879852 
	C334.735992,624.360168 334.741699,876.840576 334.589355,1129.320801 
	C334.586212,1134.579346 336.115204,1135.488159 340.964691,1135.485840 
	C593.278381,1135.368164 845.592163,1135.384399 1097.905884,1135.371094 
	C1105.295166,1135.370728 1104.500854,1136.180786 1104.504639,1128.624146 
	C1104.527588,1083.794312 1104.572998,1038.964233 1104.420410,994.134949 
	C1104.406494,990.040833 1105.312012,988.720764 1109.578247,988.868225 
	C1119.399170,989.207703 1129.242432,989.106262 1139.070923,988.904053 
	C1142.414795,988.835266 1143.643433,989.573181 1143.636475,993.227844 
	C1143.522583,1052.222900 1143.531616,1111.218506 1143.621582,1170.213745 
	C1143.626465,1173.462280 1142.770264,1174.882324 1139.435791,1174.432861 
	C1138.289917,1174.278564 1137.105957,1174.408813 1135.939331,1174.408813 
	C883.792847,1174.408813 631.646301,1174.408691 378.999817,1174.408447 
z"/>
<path fill="#EE3F39" opacity="1.000000" stroke="none" 
	d="
M1463.607910,557.000122 
	C1463.607910,691.636292 1463.608276,825.772522 1463.607910,959.908691 
	C1463.607910,966.334412 1463.609253,966.270203 1457.534790,965.819336 
	C1433.421753,964.029724 1409.261108,964.110352 1385.108765,964.281372 
	C1380.949219,964.310852 1379.903687,963.255554 1379.914429,959.086792 
	C1380.062256,902.100098 1379.968018,845.112854 1380.110229,788.126160 
	C1380.120361,784.052307 1379.252075,782.879944 1375.002197,782.895203 
	C1328.013428,783.063477 1281.023682,783.065613 1234.034912,782.893311 
	C1229.703003,782.877441 1228.961304,784.201843 1228.970581,788.197266 
	C1229.103760,845.517273 1228.972168,902.838074 1229.208130,960.157410 
	C1229.230225,965.521545 1227.639160,966.355469 1222.837646,966.047058 
	C1198.890259,964.508972 1174.897705,964.160217 1150.907715,964.284119 
	C1146.690063,964.305908 1145.736450,963.137268 1145.743408,959.031982 
	C1145.871704,883.382751 1145.837280,807.733215 1145.837280,732.083740 
	C1145.837280,668.598145 1145.906006,605.112366 1145.707397,541.627441 
	C1145.691406,536.526428 1147.163330,535.637634 1151.831543,536.048218 
	C1174.114868,538.007874 1196.417480,537.665100 1218.719604,536.063904 
	C1221.998291,535.828552 1226.262085,533.429810 1228.265991,535.546143 
	C1230.563843,537.973083 1229.022949,542.526184 1229.026611,546.143005 
	C1229.077881,597.631226 1229.121948,649.119751 1228.953247,700.607483 
	C1228.938965,704.996948 1229.967773,706.092773 1234.398804,706.075623 
	C1281.054077,705.895081 1327.710693,705.903137 1374.366089,706.063049 
	C1378.784790,706.078186 1380.147827,705.143372 1380.131470,700.450012 
	C1379.945801,647.462708 1380.075439,594.474365 1379.905151,541.486938 
	C1379.890381,536.897400 1381.014893,535.623718 1385.611694,535.950684 
	C1406.066406,537.405579 1426.562012,537.531250 1447.056274,536.963989 
	C1451.206543,536.849121 1455.485474,536.774231 1459.446777,535.715027 
	C1463.632080,534.595947 1463.754028,536.314453 1463.656616,539.505920 
	C1463.484009,545.165894 1463.608276,550.834961 1463.607910,557.000122 
z"/>
<path fill="#EE3F39" opacity="1.000000" stroke="none" 
	d="
M777.944824,846.000000 
	C777.963623,871.161560 777.935364,895.823364 778.020264,920.484680 
	C778.065002,933.485229 778.647461,946.472717 780.946106,959.293823 
	C781.666077,963.309692 780.580261,964.287598 776.568298,964.264893 
	C747.908325,964.102417 719.246704,964.108154 690.586609,964.257446 
	C686.528992,964.278564 685.798401,963.507324 686.591980,959.313965 
	C689.954468,941.545349 689.479126,923.476562 689.675110,905.506104 
	C689.982239,877.348450 689.752014,849.185059 689.773376,821.024109 
	C689.775208,818.674438 689.628906,816.425781 688.606934,814.220032 
	C663.369873,759.746765 639.408142,704.671814 612.040527,651.203186 
	C595.568909,619.022339 576.560547,588.310242 557.176880,557.829529 
	C552.412048,550.336731 546.284851,544.023132 539.605286,538.100830 
	C541.030212,536.653564 542.594666,537.336670 543.950928,537.334717 
	C577.277466,537.285889 610.604309,537.364807 643.930176,537.203369 
	C647.777649,537.184753 649.895264,538.200684 651.588928,541.778259 
	C672.653564,586.273804 693.876343,630.694519 715.041321,675.142700 
	C721.405518,688.507874 727.711975,701.900635 734.059448,715.273865 
	C734.761902,716.753845 735.560486,718.188171 736.574219,720.145142 
	C748.716370,690.165466 762.682617,661.631165 775.978210,632.792969 
	C790.044067,602.284058 804.231750,571.831360 818.349365,541.346252 
	C819.413208,539.048889 820.219849,537.179749 823.605347,537.196960 
	C856.764404,537.366089 889.924744,537.302490 923.084656,537.316528 
	C923.550354,537.316711 924.016052,537.464050 924.450623,537.537476 
	C924.531250,537.928101 924.745789,538.381226 924.630493,538.492493 
	C909.961365,552.646362 899.405579,569.796570 889.237000,587.206482 
	C871.922913,616.850342 858.400940,648.393921 843.589539,679.277527 
	C822.378052,723.505859 799.923401,767.163452 781.444641,812.674500 
	C779.084351,818.487549 777.455139,824.174927 777.878052,830.505127 
	C778.210632,835.482666 777.944885,840.500244 777.944824,846.000000 
z"/>
<path fill="#EE403A" opacity="1.000000" stroke="none" 
	d="
M1050.863525,941.979492 
	C1051.215210,948.455139 1051.442017,954.445496 1051.964478,960.409973 
	C1052.200562,963.103577 1051.740845,964.251343 1048.667847,964.240479 
	C1019.860474,964.138672 991.052124,964.102600 962.245300,964.262634 
	C957.887390,964.286865 958.796204,961.812256 959.118347,959.446960 
	C962.416748,935.225891 961.615112,910.956299 960.052490,886.675720 
	C959.977661,885.513733 960.031067,884.290588 959.677917,883.209167 
	C958.568604,879.812805 960.160645,879.309509 963.120239,879.325562 
	C980.604248,879.420593 998.088928,879.372314 1015.573425,879.372314 
	C1026.397095,879.372375 1037.222778,879.488281 1048.043335,879.303406 
	C1051.378784,879.246399 1052.281494,880.257446 1052.075439,883.566711 
	C1050.874878,902.851807 1050.539429,922.162598 1050.863525,941.979492 
z"/>
</svg>